<svg width="193" height="78" viewBox="0 0 193 78" fill="none" xmlns="http://www.w3.org/2000/svg">
<path d="M125.204 0H148.324V8.26804H141.051V56.9576H132.477V8.26804H125.204V0Z" fill="#9F2E27"/>
<path d="M103.922 0H123.597V8.26804H112.573V23.1965H121.224V31.8473H112.573V48.3068H124.057V56.9576H103.922V0Z" fill="#9F2E27"/>
<path d="M77.8304 56.9576V0H91.4574C94.8259 0 97.1736 0.791078 98.5005 2.37323C99.8786 3.95539 100.568 6.25207 100.568 9.26327V17.9907C100.568 22.1757 99.1385 24.8041 96.2804 25.8759C99.5979 27.1518 101.257 29.9334 101.257 34.2205V46.546C101.257 49.7614 100.491 52.3132 98.9599 54.2016C97.4798 56.039 95.1831 56.9576 92.0698 56.9576H77.8304ZM89.0842 31.0052H86.4813V48.9193H89.0842C90.4111 48.9193 91.3043 48.613 91.7636 48.0006C92.223 47.3881 92.4526 46.4184 92.4526 45.0915V34.6798C92.4526 33.4039 92.223 32.4852 91.7636 31.9238C91.3043 31.3114 90.4111 31.0052 89.0842 31.0052ZM89.0842 7.73215H86.4813V22.5075H89.0842C91.0746 22.5075 92.0698 21.1805 92.0698 18.5265V11.3303C92.0698 10.0543 91.8402 9.13567 91.3808 8.57426C90.9725 8.01286 90.207 7.73215 89.0842 7.73215Z" fill="#9F2E27"/>
<path d="M65.8393 56.9576V26.1056L59.6382 56.9576H50.9874V0H59.6382V30.852L65.8393 0H74.4901V56.9576H65.8393Z" fill="#9F2E27"/>
<path d="M39.6494 33.3018H34.5967V56.9576H25.9459V0H39.6494C42.7627 0 45.0084 0.740041 46.3864 2.22012C47.8154 3.64917 48.5299 6.04792 48.5299 9.41638V22.8902C48.5299 29.8313 45.5698 33.3018 39.6494 33.3018ZM34.5967 7.73215V25.1104H36.8169C38.0418 25.1104 38.8328 24.7786 39.1901 24.1151C39.5984 23.4006 39.8025 22.3543 39.8025 20.9763V11.6365C39.8025 10.3606 39.5984 9.39086 39.1901 8.72738C38.7818 8.06389 37.9907 7.73215 36.8169 7.73215H34.5967Z" fill="#9F2E27"/>
<path d="M0 56.9576V0H22.584V56.9576H13.9332V8.26804H8.65082V56.9576H0Z" fill="#9F2E27"/>
<path d="M180.413 70.3496C180.794 70.9212 181.842 70.2543 183.557 68.3489C184.223 67.682 184.986 66.8245 185.843 65.7765L186.701 64.4903C186.986 64.2045 187.272 63.871 187.558 63.49C188.225 62.5372 188.987 62.1085 189.845 62.2038C190.607 62.3943 190.464 63.2518 189.416 64.7761C188.558 66.0147 187.415 67.4438 185.986 69.0634C184.462 70.7783 183.366 71.8263 182.699 72.2074C180.317 73.1601 178.745 72.8267 177.983 71.207C177.316 69.7779 177.364 67.9201 178.126 65.6336C178.031 65.7289 177.507 66.2052 176.554 67.0627C175.697 67.9201 174.887 68.6347 174.125 69.2063C171.933 70.9212 170.171 71.4929 168.837 70.9212C165.598 69.3969 165.407 66.3481 168.265 61.775C169.218 60.2507 170.409 58.8216 171.838 57.4878C173.362 55.8681 174.839 54.7725 176.268 54.2009C179.317 52.9623 181.651 53.5816 183.271 56.0587C183.747 55.487 184.271 55.4394 184.843 55.9158C185.414 56.4874 185.414 57.3449 184.843 58.4881L182.985 61.775C182.032 63.49 181.365 64.8714 180.984 65.9194C180.413 67.539 180.222 69.0158 180.413 70.3496ZM169.266 68.206C169.266 68.7776 169.933 68.587 171.266 67.6343C172.41 66.8721 173.886 65.7289 175.697 64.2045C177.316 62.7754 178.745 61.4416 179.984 60.203C181.222 58.774 181.794 57.9165 181.699 57.6307C181.032 55.3441 178.841 55.7729 175.125 58.9169C173.696 60.0601 172.41 61.4416 171.266 63.0612C169.933 65.062 169.266 66.7769 169.266 68.206Z" fill="#9F2E27"/>
<path d="M161.901 61.2034L161.044 63.7758C160.091 66.7292 159.615 69.0158 159.615 70.6354C160.186 71.7787 161.663 70.7783 164.045 67.6343L165.474 65.6336L166.903 63.6329C168.046 62.0132 168.761 61.0129 169.047 60.6318C169.523 60.346 169.952 60.346 170.333 60.6318L170.762 61.2034L171.048 61.6321C170.571 62.2038 169.761 63.347 168.618 65.062L167.189 67.0627L165.617 69.0634C163.14 72.2074 161.139 73.5889 159.615 73.2078C157.233 72.6361 156.661 69.6827 157.9 64.3474C157.995 63.9663 158.09 63.6329 158.186 63.347L157.614 63.6329L155.613 64.6332C152.184 66.4434 149.945 67.158 148.897 66.7769C148.706 66.7769 148.563 66.7292 148.468 66.634L145.896 73.3507C143.895 73.7318 143.085 73.0172 143.466 71.207C143.561 70.5401 143.847 69.635 144.324 68.4918L145.038 66.9198L145.61 65.4907L146.61 62.7754L147.61 60.203C148.277 58.2023 148.801 56.2016 149.182 54.2009C150.421 53.534 151.183 53.534 151.469 54.2009C151.564 54.4867 151.612 54.9154 151.612 55.487L151.469 56.7732L151.183 58.3452L150.754 59.9172C150.278 61.251 150.04 62.0609 150.04 62.3467L149.468 63.9187C149.373 64.6809 150.564 64.4427 153.041 63.2041C153.898 62.7278 155.185 62.0132 156.9 61.0605L159.043 59.6314L159.329 59.4885C159.424 59.1074 159.567 58.6787 159.758 58.2023C160.425 56.3921 161.044 55.0583 161.616 54.2009H162.187C162.568 54.2009 162.902 54.2485 163.188 54.3438C164.045 54.6296 164.188 55.4394 163.616 56.7732C163.14 58.0118 162.711 59.1074 162.33 60.0601L162.044 61.0605V61.2034H161.901Z" fill="#9F2E27"/>
<path d="M139.671 70.3496C140.624 70.2543 142.434 68.5871 145.102 65.3478L146.674 63.3471L148.103 61.6321C149.056 60.2983 149.722 59.4409 150.104 59.0598C151.723 59.6314 151.152 61.6798 148.389 65.2049C147.341 66.4434 146.197 67.7296 144.959 69.0634C143.816 70.1114 142.958 70.8736 142.386 71.35C138.957 74.1129 137.146 73.6841 136.956 70.0638C136.861 68.73 137.051 67.2056 137.528 65.4907C137.909 63.8711 138.433 62.5849 139.1 61.6321L138.671 62.2038L138.099 62.9183C137.528 63.5852 137.051 64.1569 136.67 64.6332C135.432 66.0623 134.288 67.2532 133.24 68.206C130.192 70.8736 127.953 71.4929 126.524 70.0638L126.238 69.778L125.952 69.3492C125.666 68.9681 125.523 68.6823 125.523 68.4918C124.952 66.9674 125.523 64.2998 127.238 60.4889C128.858 56.8685 130.382 54.5343 131.811 53.4863C132.002 53.4863 132.24 53.534 132.526 53.6292C132.907 53.7245 133.24 53.8674 133.526 54.058C134.193 54.5343 134.431 55.0107 134.241 55.4871C133.097 56.6303 131.668 58.9645 129.953 62.4896C128.238 66.2052 127.714 68.1583 128.381 68.3489C129.525 68.5394 131.716 66.7292 134.955 62.9183C137.813 59.4885 140.052 56.3921 141.672 53.6292C142.72 51.7238 143.958 51.6761 145.388 53.4863C145.197 53.9627 144.768 55.106 144.101 56.9161L143.101 59.3456L142.101 61.918C140.386 66.3958 139.576 69.2063 139.671 70.3496Z" fill="#9F2E27"/>
<path d="M117.9 70.3496C118.853 70.2543 120.663 68.5871 123.33 65.3478L124.902 63.3471L126.331 61.6321C127.284 60.2983 127.951 59.4409 128.332 59.0598C129.952 59.6314 129.38 61.6798 126.617 65.2049C125.569 66.4434 124.426 67.7296 123.187 69.0634C122.044 70.1114 121.187 70.8736 120.615 71.35C117.185 74.1129 115.375 73.6841 115.185 70.0638C115.089 68.73 115.28 67.2056 115.756 65.4907C116.137 63.8711 116.661 62.5849 117.328 61.6321L116.899 62.2038L116.328 62.9183C115.756 63.5852 115.28 64.1569 114.899 64.6332C113.66 66.0623 112.517 67.2532 111.469 68.206C108.42 70.8736 106.181 71.4929 104.752 70.0638L104.466 69.778L104.181 69.3492C103.895 68.9681 103.752 68.6823 103.752 68.4918C103.18 66.9674 103.752 64.2998 105.467 60.4889C106.134 58.3929 107.182 56.8209 108.611 55.7729C108.801 55.7729 109.039 55.8205 109.325 55.9158C109.706 56.011 110.04 56.154 110.326 56.3445C110.993 56.8209 111.231 57.2972 111.04 57.7736C109.897 58.9169 108.944 60.4889 108.182 62.4896C106.467 66.2052 105.943 68.1583 106.61 68.3489C107.753 68.5394 109.945 66.7292 113.184 62.9183C116.042 59.4885 118.567 55.63 120.758 51.3427C121.806 49.4372 123.045 49.3896 124.474 51.1998C124.283 51.6761 123.569 53.5816 122.33 56.9161L121.33 59.3456L120.329 61.918C118.614 66.3958 117.805 69.2063 117.9 70.3496Z" fill="#9F2E27"/>
<path d="M109.914 57.202C109.056 57.3925 105.96 57.6307 100.625 57.9165C101.958 61.0605 101.101 64.3474 98.0523 67.7772C95.0988 71.207 92.193 72.6838 89.3348 72.2074C86.0003 71.6358 84.6664 69.1587 85.3334 64.7761C86.0003 60.7747 87.7152 57.7736 90.4781 55.7729C93.7174 53.391 96.6708 53.01 99.3384 54.6296C100.386 55.106 101.72 55.3441 103.34 55.3441L105.484 55.487L107.627 55.3441C109.247 55.2489 110.295 55.3441 110.771 55.63C111.438 55.9158 111.152 56.4398 109.914 57.202ZM94.4795 57.202C92.3835 58.631 90.8115 60.1078 89.7635 61.6321C88.3344 63.7281 87.7152 66.0147 87.9057 68.4918C89.6206 69.9209 92.0977 69.111 95.337 66.0623C98.481 63.1089 99.6719 60.5841 98.9097 58.4881C96.5279 58.9645 95.0512 58.5358 94.4795 57.202Z" fill="#9F2E27"/>
<path d="M67.6797 54.2009C68.9182 53.534 69.6804 53.534 69.9662 54.2009C70.0615 54.4867 70.1091 54.9154 70.1091 55.4871L69.9662 56.7732L69.6804 58.3452L69.2517 59.9172C68.7753 61.2511 68.5371 62.0609 68.5371 62.3467C68.8229 62.0609 69.4422 61.2987 70.3949 60.0601L71.5382 58.3452L72.9673 56.6303C75.4444 53.6769 77.2546 52.1525 78.3978 52.0572C79.4458 51.8667 80.3033 52.3431 80.9702 53.4863C81.6371 54.5343 81.8277 55.8205 81.5418 57.3449C81.3513 58.9645 80.7797 61.1558 79.8269 63.9187L78.5407 67.3485L77.5404 70.7783C76.6829 74.3034 78.0644 73.6365 81.6847 68.7776L82.828 67.2056L83.8284 65.7765C84.6858 64.6332 85.4004 63.7281 85.972 63.0612C87.3058 61.2511 88.1157 60.5365 88.4015 60.9176C89.3542 61.394 88.6397 63.4423 86.2578 67.0627C83.9713 70.4925 82.1611 72.7314 80.8273 73.7794C78.9218 75.3991 77.3498 76.066 76.1113 75.7801C74.7775 75.3991 74.3011 73.8747 74.6822 71.2071C74.968 69.2063 75.6826 66.5387 76.8258 63.2041L78.112 59.3456C78.5884 57.8212 78.9218 56.3921 79.1124 55.0583C78.8266 54.1056 77.7786 54.7249 75.9684 56.9161C75.3967 57.6783 74.4917 58.8692 73.2531 60.4889L71.824 62.6325L70.252 64.6332C68.156 67.2056 66.2029 70.1114 64.3927 73.3507C62.392 73.7318 61.5822 73.0172 61.9633 71.2071C62.0586 70.5401 62.3444 69.6351 62.8207 68.4918L63.5353 66.9198L64.1069 65.4907L65.1073 62.7754L66.1077 60.2031C66.7746 58.2023 67.2986 56.2016 67.6797 54.2009Z" fill="#9F2E27"/>
<path d="M175.515 52.3475C177.298 51.6234 179.103 51.3486 180.818 51.8036C182.003 52.1178 183.011 52.7453 183.854 53.6014C184.702 53.5286 185.404 53.8468 185.915 54.2176L186.123 54.3797L186.193 54.4374L186.257 54.5018L186.393 54.6444C187.74 56.1356 187.305 58.0365 186.632 59.3827L186.609 59.4276L184.725 62.7587C184.036 63.9993 183.526 65.0186 183.175 65.829C183.505 65.4555 183.859 65.0384 184.238 64.577L185.037 63.3807L185.146 63.2157L185.286 63.076C185.494 62.8677 185.719 62.6082 185.958 62.2899C186.877 61.0029 188.256 60.0148 190.065 60.2157L190.199 60.2313L190.33 60.2635L190.541 60.3251C191.043 60.4918 191.599 60.8282 191.968 61.454C192.37 62.1329 192.362 62.8349 192.282 63.3182C192.133 64.2119 191.608 65.1179 191.064 65.909L191.06 65.9149C190.144 67.2387 188.947 68.7313 187.486 70.3866L187.481 70.3924C186.699 71.2721 186.004 72.0059 185.403 72.5809C184.828 73.1307 184.244 73.6281 183.691 73.9442L183.571 74.0126L183.442 74.0643C182.084 74.6074 180.66 74.9131 179.319 74.6288C177.937 74.3357 176.92 73.4775 176.294 72.2987L176.171 72.0526C175.943 71.5655 175.781 71.0585 175.675 70.536C175.557 70.6284 175.44 70.7182 175.324 70.8055C173.152 72.4982 170.645 73.7236 168.279 72.8514L168.05 72.7596L168.017 72.746L167.985 72.7313C166.613 72.0858 165.539 71.1495 164.902 69.9335C165.135 69.6597 165.375 69.3708 165.617 69.0633L166.354 68.1239C166.623 69.3357 167.45 70.268 168.837 70.9208C170.17 71.4924 171.933 70.9208 174.125 69.2059C174.887 68.6343 175.697 67.9197 176.554 67.0624C177.506 66.2056 178.03 65.7293 178.126 65.6337C177.364 67.9201 177.316 69.7778 177.983 71.2069C178.745 72.8265 180.317 73.1605 182.699 72.2079C183.366 71.8268 184.462 70.7782 185.986 69.0633C187.236 67.6463 188.268 66.3752 189.081 65.2499L189.416 64.7762C190.464 63.2519 190.607 62.3945 189.844 62.204C188.987 62.1087 188.225 62.5374 187.558 63.4901L187.343 63.7665C187.129 64.0344 186.915 64.2758 186.701 64.4901L185.843 65.7762C184.986 66.8242 184.223 67.6816 183.556 68.3485C181.841 70.2539 180.794 70.921 180.413 70.3495C180.222 69.0158 180.413 67.5393 180.984 65.9198C181.318 65.0027 181.87 63.83 182.641 62.4022L182.985 61.7753L184.842 58.4881C185.414 57.3449 185.414 56.4875 184.842 55.9159C184.271 55.4396 183.747 55.4868 183.27 56.0585C181.651 53.5817 179.317 52.9626 176.268 54.201L176 54.3143C174.654 54.9116 173.267 55.9697 171.838 57.4881C170.641 58.6046 169.614 59.789 168.752 61.0389C168.376 61.5574 167.758 62.4208 166.903 63.6327L164.259 67.3338C164.218 65.2578 165.134 63.0116 166.569 60.7147C167.611 59.0483 168.9 57.5016 170.424 56.0721C172.049 54.3531 173.742 53.0591 175.515 52.3475ZM171.266 67.6346C169.933 68.5873 169.265 68.7775 169.265 68.2059C169.265 66.7769 169.933 65.062 171.266 63.0614C172.41 61.4418 173.696 60.0601 175.125 58.9169C178.84 55.7729 181.032 55.3442 181.699 57.6307C181.794 57.9166 181.222 58.7742 179.984 60.203C178.746 61.4415 177.317 62.7759 175.697 64.2049L175.033 64.7587C173.522 66.0089 172.267 66.9678 171.266 67.6346ZM178.426 58.9286C177.883 59.2776 177.215 59.7673 176.417 60.4432L176.396 60.4618L176.375 60.4784C175.329 61.3148 174.36 62.3043 173.467 63.452C173.768 63.2056 174.083 62.9484 174.408 62.6747C175.927 61.3335 177.264 60.0839 178.426 58.9286Z" fill="white"/>
<path d="M158.185 63.3475C158.09 63.6332 157.995 63.9667 157.9 64.3475C156.662 69.6828 157.233 72.6362 159.615 73.2079C161.139 73.5888 163.14 72.2072 165.617 69.0633L166.354 68.1239C166.515 68.8459 166.873 69.4675 167.43 69.9911L167.189 70.2987L167.188 70.3016C165.895 71.943 164.632 73.2497 163.395 74.1034C162.18 74.9427 160.695 75.5395 159.13 75.1483V75.1463C158.154 74.9083 157.293 74.4035 156.635 73.6171C155.991 72.8484 155.624 71.916 155.436 70.9442C155.215 69.8005 155.216 68.4711 155.392 66.9911C154.107 67.6269 152.962 68.1158 151.969 68.4325C151.283 68.6514 150.515 68.8408 149.753 68.87L147.365 75.1073L146.269 75.3153C145.162 75.5262 143.614 75.614 142.465 74.6004C141.656 73.8867 141.398 72.9604 141.379 72.0995C141.697 71.8829 142.034 71.6345 142.386 71.3504C142.724 71.0689 143.161 70.6862 143.699 70.2049C143.586 70.5838 143.508 70.9176 143.467 71.2069C143.085 73.017 143.895 73.7314 145.895 73.3504L148.468 66.6337C148.563 66.7289 148.706 66.7771 148.896 66.7772C149.944 67.1583 152.183 66.4437 155.613 64.6337L158.185 63.3475ZM162.187 52.201C162.661 52.201 163.146 52.2523 163.618 52.3846L163.82 52.4462L163.996 52.5106C164.408 52.6721 164.823 52.9239 165.174 53.3075C165.582 53.7545 165.813 54.2841 165.907 54.8182C166.075 55.7716 165.807 56.7182 165.483 57.4911L164.8 59.2528C164.598 59.7688 164.405 60.2535 164.223 60.7079L164.045 61.3387V63.203H163.343L162.941 64.4081C162.68 65.2189 162.463 65.9633 162.283 66.6424C162.333 66.5777 162.385 66.5128 162.436 66.4452L165.269 62.4794L166.669 60.5057C167.033 59.9961 167.293 59.6363 167.447 59.4315L167.681 59.118L168.017 58.9169L169.042 60.6249C168.94 60.764 168.843 60.905 168.746 61.0458C168.37 61.565 167.755 62.4264 166.903 63.6327L164.045 67.6346C161.663 70.7782 160.187 71.7785 159.615 70.6356C159.615 69.0161 160.091 66.7295 161.044 63.7762L161.901 61.203H162.045V61.0604L162.33 60.0604C162.711 59.1077 163.14 58.0118 163.616 56.7733C164.188 55.4395 164.045 54.6294 163.187 54.3436C162.973 54.2722 162.732 54.2277 162.464 54.2098L162.187 54.201V52.201ZM150.868 51.7059C151.305 51.7312 151.786 51.8502 152.239 52.1385C152.698 52.4307 153.016 52.8254 153.224 53.2362L153.307 53.4129L153.34 53.4891L153.366 53.5682C153.565 54.1667 153.612 54.8572 153.612 55.4872V55.5975L153.599 55.7079L153.457 56.994L153.449 57.0633L153.436 57.1307L153.151 58.703L153.135 58.7879L153.113 58.8719L152.684 60.4432L152.664 60.5174L152.637 60.5897C152.548 60.8394 152.471 61.0668 152.401 61.2713C153.232 60.8099 154.382 60.1711 155.852 59.3544L157.64 58.162C157.713 57.9486 157.793 57.7312 157.881 57.5106C158.563 55.6572 159.248 54.1475 159.952 53.0917L160.546 52.201H162.187V54.201H161.616C161.044 55.0585 160.424 56.3919 159.758 58.202C159.567 58.6782 159.424 59.1071 159.329 59.4881L159.043 59.6317L156.899 61.0604L153.041 63.204C150.564 64.4424 149.373 64.6809 149.469 63.9188L149.611 63.5253C150.856 61.6587 151.264 60.3585 150.835 59.62L151.183 58.3456L151.469 56.7733L151.612 55.4872C151.612 54.9155 151.564 54.4869 151.469 54.201C151.183 53.5342 150.421 53.5341 149.182 54.201C148.801 56.2017 148.277 58.2023 147.61 60.203L146.61 62.7753L146.157 64.0028L145.101 65.3475C143.936 66.7624 142.934 67.8772 142.096 68.6922C142.212 68.3779 142.339 68.0541 142.477 67.7225L142.503 67.6639L143.196 66.1385L143.746 64.7626L144.733 62.0838L144.74 62.0672L144.746 62.0506L145.719 59.5458C146.355 57.6348 146.855 55.729 147.218 53.827L147.396 52.8915L148.234 52.4403C148.937 52.0618 149.796 51.701 150.683 51.701L150.868 51.7059ZM173.54 61.7655L172.584 62.9129C172.186 63.3907 171.431 64.4477 170.282 66.1717L170.264 66.1981L170.246 66.2245L169.314 67.5282C169.487 66.2441 170.137 64.7551 171.266 63.0614C171.806 62.297 172.379 61.5869 172.982 60.9286L173.54 61.7655ZM169.725 58.4178C170.082 58.4178 170.419 58.482 170.728 58.5946C170.113 59.2503 169.55 59.9265 169.042 60.6249L168.017 58.9169C168.476 58.6415 169.056 58.4179 169.725 58.4178Z" fill="white"/>
<path d="M139.099 61.6317C138.432 62.5844 137.908 63.8714 137.527 65.4911C137.051 67.2056 136.861 68.7297 136.956 70.0633C137.14 73.5707 138.845 74.0831 142.07 71.5995L142.386 71.3504C142.724 71.0689 143.161 70.6862 143.699 70.2049C143.586 70.5838 143.508 70.9176 143.467 71.2069C143.305 71.9751 143.358 72.5452 143.626 72.9188C142.702 73.6612 141.8 74.2633 140.931 74.6503C140.08 75.0293 139.051 75.2964 137.996 75.0467C136.84 74.7729 136.061 73.9808 135.609 73.0663C135.193 72.2233 135.017 71.2238 134.961 70.2049V70.2059C134.941 69.9293 134.932 69.6486 134.932 69.3641C134.816 69.4735 134.701 69.5809 134.586 69.6854L134.572 69.6991L134.557 69.7108C132.951 71.1162 131.357 72.1698 129.807 72.5985C128.224 73.0364 126.631 72.8193 125.359 71.7118L125.109 71.4784L124.824 71.1922L124.683 71.0526L124.574 70.8876L124.302 70.4794C124.136 70.2529 123.972 70.0047 123.842 69.743C123.753 69.5651 123.634 69.2949 123.57 68.9628C123.545 68.883 123.521 68.8026 123.5 68.7215C124.133 68.0342 124.741 67.3598 125.324 66.6981C125.275 67.4108 125.342 68.009 125.523 68.4921C125.523 68.6826 125.666 68.9686 125.952 69.3495L126.238 69.7782L126.523 70.0633C127.952 71.4924 130.191 70.8735 133.24 68.2059C134.288 67.2533 135.431 66.0625 136.67 64.6337C137.051 64.1573 137.528 63.5856 138.099 62.9188L138.671 62.204L139.099 61.6317ZM143.31 50.1659C144.747 50.1108 145.858 50.9809 146.641 51.868L146.958 52.2469L147.675 53.1551L147.245 54.2294C147.067 54.6747 146.648 55.7889 145.978 57.6073L145.951 57.6776L144.95 60.1073L143.968 62.6327C143.734 63.2414 143.52 63.8165 143.323 64.3573C143.395 64.2709 143.468 64.1838 143.542 64.0946L145.101 62.1112L145.119 62.0887L145.137 62.0663L146.464 63.1717L146.157 64.0028L145.101 65.3475C142.434 68.5862 140.624 70.2537 139.672 70.3495C139.576 69.2061 140.385 66.3955 142.1 61.9178L143.101 59.3456L144.101 56.9159C144.768 55.1058 145.197 53.9625 145.387 53.4862C143.958 51.6762 142.72 51.7236 141.672 53.6288C140.052 56.3917 137.813 59.489 134.955 62.9188L134.36 63.6092C131.446 66.9474 129.453 68.5269 128.382 68.3485C127.715 68.158 128.238 66.2048 129.953 62.4891C131.668 58.9641 133.098 56.6304 134.241 55.4872C134.431 55.0108 134.193 54.5338 133.526 54.0575C133.312 53.9146 133.07 53.7991 132.802 53.7098L132.526 53.6288C132.24 53.5335 132.002 53.4862 131.811 53.4862C130.413 54.5117 128.923 56.769 127.343 60.2577C127.052 60.6395 126.714 61.0965 126.332 61.6317L124.902 63.3475L123.536 65.0848C123.546 65.0328 123.556 64.9805 123.567 64.9286C123.894 63.4042 124.526 61.6418 125.414 59.6678C127.04 56.0347 128.739 53.2594 130.629 51.8739L131.156 51.4862H131.811L131.995 51.492C132.383 51.5141 132.75 51.6033 133.067 51.704C133.548 51.8291 134.013 52.0139 134.445 52.2733L134.635 52.3934L134.688 52.4305C135.157 52.7653 135.671 53.2323 135.994 53.8778C136.357 54.6047 136.414 55.4383 136.097 56.2294L135.945 56.6112L135.655 56.9012C134.777 57.7788 133.478 59.8205 131.769 63.328L131.619 63.6571C132.166 63.0754 132.768 62.4026 133.424 61.6317C136.234 58.2586 138.4 55.2558 139.946 52.618C140.556 51.5268 141.609 50.2313 143.31 50.1659ZM148.468 66.6337C148.563 66.7289 148.706 66.7771 148.896 66.7772C149.088 66.8469 149.319 66.8784 149.591 66.8749C148.91 67.6713 148.193 68.486 147.439 69.3172L148.468 66.6337ZM151.348 57.4344C151.943 57.7656 152.467 58.28 152.764 59.0223C153.123 59.9179 153.02 60.8314 152.816 61.5624C152.624 62.2527 152.277 62.9953 151.814 63.7811C150.172 64.4956 149.391 64.542 149.469 63.9188L149.611 63.5253C150.856 61.6587 151.264 60.3585 150.835 59.62L151.183 58.3456L151.348 57.4344ZM148.249 58.1297C148.053 58.8207 147.84 59.512 147.61 60.203L146.61 62.7753L146.464 63.1717L145.137 62.0663L146.53 60.3944C147.205 59.4515 147.786 58.6751 148.249 58.1297Z" fill="white"/>
<path d="M106.899 57.5262C106.308 58.3579 105.83 59.3455 105.467 60.4891C103.752 64.2999 103.18 66.9677 103.752 68.492C103.752 68.6826 103.895 68.9686 104.18 69.3495L104.467 69.7782L104.753 70.0633C106.182 71.4924 108.42 70.8734 111.469 68.2059C112.516 67.2532 113.661 66.0627 114.899 64.6336C115.28 64.1573 115.756 63.5856 116.328 62.9188L116.899 62.204L117.328 61.6317C116.661 62.5844 116.138 63.8714 115.757 65.4911C115.28 67.2057 115.089 68.7297 115.184 70.0633C115.375 73.6836 117.185 74.1131 120.615 71.3504C121.187 70.8741 122.044 70.1113 123.187 69.0633C123.935 68.2582 124.646 67.4685 125.324 66.6981C125.276 67.4108 125.342 68.009 125.523 68.492C125.523 68.6488 125.622 68.8686 125.815 69.1542C125.437 69.5728 125.05 69.9971 124.653 70.4247L124.598 70.4833L124.539 70.5379C123.392 71.5895 122.505 72.3784 121.895 72.8866L121.883 72.8973L121.87 72.9071C120.941 73.655 120.033 74.2612 119.16 74.6502C118.309 75.0293 117.279 75.2965 116.224 75.0467C115.068 74.7729 114.29 73.9808 113.838 73.0663C113.421 72.2233 113.246 71.2237 113.189 70.2049V70.2059C113.169 69.9293 113.161 69.6486 113.161 69.3641C113.044 69.4734 112.929 69.5809 112.814 69.6854L112.801 69.6991L112.786 69.7108C111.18 71.116 109.587 72.1697 108.037 72.5985C106.453 73.0365 104.859 72.8194 103.588 71.7118L103.338 71.4784L103.052 71.1922L102.912 71.0526L102.802 70.8876L102.524 70.4706C102.36 70.2464 102.199 70.0014 102.07 69.743C101.981 69.5645 101.863 69.2932 101.799 68.9598C101.407 67.7264 101.498 66.3217 101.797 64.9286C102.118 63.4293 102.734 61.7 103.599 59.7655C103.839 59.0321 104.126 58.34 104.462 57.6942C105.387 57.6359 106.199 57.5798 106.899 57.5262ZM122.396 47.8797C123.834 47.8245 124.945 48.6945 125.728 49.5819L126.044 49.9608L126.761 50.868L126.331 51.9422C126.152 52.3888 125.449 54.2614 124.205 57.6122L124.193 57.6454L124.179 57.6776L123.179 60.1073L122.196 62.6327L122.197 62.6336C121.964 63.2422 121.749 63.8166 121.552 64.3573C121.623 64.2709 121.697 64.1838 121.77 64.0946L123.33 62.1112L123.347 62.0887L123.366 62.0663L124.759 60.3944C125.669 59.1221 126.41 58.1534 126.918 57.6454L127.809 56.7547L128.914 57.1434C128.401 58.0409 127.877 59.079 127.343 60.2577C127.052 60.6395 126.714 61.0965 126.332 61.6317L124.902 63.3475L123.331 65.3475C120.663 68.5865 118.853 70.2539 117.9 70.3495C117.805 69.2061 118.614 66.3955 120.329 61.9178L121.33 59.3456L122.33 56.9159C123.568 53.5822 124.283 51.677 124.473 51.2001C123.044 49.3899 121.806 49.4372 120.758 51.3426C118.566 55.6298 116.042 59.489 113.184 62.9188L112.589 63.6092C109.675 66.9475 107.682 68.5271 106.61 68.3485C105.985 68.1698 106.407 66.4426 107.875 63.1659L108.182 62.4891C108.945 60.4887 109.897 58.9165 111.04 57.7733C111.19 57.3981 111.072 57.0254 110.69 56.6502C111.235 56.18 111.263 55.8406 110.771 55.6297C110.295 55.3439 109.246 55.2493 107.627 55.3446L106.004 55.452C106.433 54.9755 106.907 54.5425 107.428 54.16L107.956 53.7733H108.611L108.795 53.7782C109.182 53.8002 109.549 53.8894 109.867 53.9901C110.348 54.1152 110.812 54.3009 111.245 54.5604L111.435 54.6805L111.462 54.6981L111.488 54.7167C111.957 55.0515 112.471 55.5193 112.794 56.1649C113.157 56.8918 113.214 57.7254 112.897 58.5165L112.745 58.8973L112.455 59.1874C111.564 60.0777 110.744 61.3835 110.052 63.202L110.027 63.2655L109.998 63.328C109.946 63.4396 109.896 63.5495 109.847 63.6571C110.395 63.0754 110.997 62.4026 111.652 61.6317C114.406 58.3258 116.85 54.5954 118.977 50.4325L118.991 50.4051L119.006 50.3788C119.611 49.278 120.671 47.9461 122.396 47.8797ZM131.219 60.0086C131.261 60.5657 131.174 61.1004 131.045 61.5624C130.674 62.8899 129.739 64.4111 128.483 66.0565C128.789 65.1403 129.278 63.9507 129.953 62.4891C130.393 61.5836 130.816 60.757 131.219 60.0086Z" fill="white"/>
<path d="M106.899 57.5262C106.465 58.1373 106.093 58.8326 105.781 59.6122C105.008 59.6649 104.139 59.7186 103.175 59.7752C103.549 62.9742 102.187 66.1248 99.5671 69.0809L99.5681 69.0819C96.5282 72.6121 93.1043 74.6938 89.3689 74.2333L89.0056 74.1805L88.9968 74.1786C86.8601 73.8123 85.0917 72.7608 84.073 70.869C83.9984 70.7305 83.9296 70.5888 83.865 70.4452C84.3227 69.8443 84.8066 69.1757 85.3181 68.4403C85.7447 70.5653 87.0823 71.8217 89.3347 72.2079C92.1929 72.6842 95.099 71.207 98.0525 67.7772C101.101 64.3476 101.958 61.0607 100.625 57.9168C103.264 57.7754 105.356 57.6443 106.899 57.5262ZM94.4792 57.202C95.0509 58.5358 96.5281 58.9645 98.9099 58.4881C99.672 60.5841 98.4806 63.1089 95.3367 66.0624C92.0977 69.1108 89.6209 69.9208 87.906 68.492C87.7155 66.015 88.3343 63.7277 89.7634 61.6317C90.8114 60.1075 92.3835 58.631 94.4792 57.202ZM94.2136 59.8768C92.9766 60.861 92.0553 61.8272 91.4109 62.7645C90.4667 64.1515 89.9657 65.6084 89.8845 67.1698C90.034 67.1587 90.2124 67.1262 90.4285 67.0555C91.2562 66.7849 92.4302 66.0523 93.9666 64.6063L93.9675 64.6043C95.4454 63.216 96.3329 62.0462 96.7791 61.1004C96.8508 60.9483 96.9069 60.8039 96.9548 60.6688C96.4372 60.6512 95.9348 60.5827 95.4578 60.4442C95.006 60.313 94.589 60.1223 94.2136 59.8768ZM83.3601 64.4471L84.6755 64.6659C84.4108 65.0072 84.1275 65.3767 83.8279 65.7762L83.1677 66.7196C83.1728 65.995 83.2392 65.244 83.3562 64.4754L83.3582 64.4618L83.3601 64.4471ZM94.8669 51.7167C96.7611 51.4723 98.5693 51.8647 100.231 52.8348C100.934 53.1394 101.94 53.3446 103.34 53.3446H103.406L103.473 53.3485L105.483 53.4813L107.494 53.3485H107.502L107.51 53.3475C108.372 53.2968 109.148 53.2923 109.809 53.3524C110.365 53.4029 111.046 53.5166 111.648 53.8329C112.012 54.002 112.578 54.3487 112.902 55.037C113.307 55.8972 113.079 56.7078 112.813 57.1952C112.57 57.6416 112.224 57.976 111.954 58.204C111.661 58.4507 111.321 58.6838 110.962 58.9051L110.676 59.0819L110.347 59.1542C110.205 59.1857 110.032 59.2152 109.831 59.245C110.207 58.6938 110.61 58.2032 111.04 57.7733C111.19 57.3981 111.072 57.0254 110.69 56.6502C111.235 56.18 111.263 55.8406 110.771 55.6297C110.295 55.3439 109.246 55.2493 107.627 55.3446L105.483 55.4872L103.34 55.3446C101.821 55.3446 100.554 55.1345 99.5378 54.7157L99.3386 54.6297C96.671 53.0101 93.7175 53.3915 90.4783 55.7733L90.2224 55.9637C87.8991 57.7408 86.3551 60.2601 85.5867 63.5213C85.3102 63.8573 85.0067 64.2389 84.6755 64.6659L83.3601 64.4471C84.096 60.0321 86.0374 56.5197 89.3054 54.1532C91.1027 52.8338 92.961 51.9626 94.8669 51.7167Z" fill="white"/>
<path d="M78.154 50.0731C79.0544 49.9323 79.9649 50.0601 80.7985 50.5233C81.6324 50.9866 82.2446 51.7012 82.698 52.4784H82.697C83.6501 54.0163 83.8504 55.7926 83.5212 57.6307C83.3 59.4551 82.6773 61.7878 81.7175 64.5711L81.7087 64.5956L81.6999 64.621L81.1296 66.1385L81.1901 66.0575L82.1901 64.6297L82.2087 64.6024L82.2282 64.576C83.0749 63.4471 83.8026 62.523 84.405 61.8163C85.0699 60.9177 85.6952 60.1631 86.2566 59.6678C86.5125 59.442 86.9354 59.1049 87.4802 58.9325C86.6269 60.2505 85.9968 61.7803 85.5866 63.5213C85.0891 64.1258 84.5022 64.8771 83.8278 65.7762L82.8278 67.2059L81.6843 68.7772C78.0639 73.6361 76.6833 74.3033 77.5407 70.7782L78.5407 67.3485L79.8269 63.9188C80.7796 61.1559 81.3512 58.9642 81.5417 57.3446C81.8275 55.8204 81.6373 54.5341 80.9704 53.4862C80.3036 52.343 79.446 51.8671 78.3982 52.0575C77.2549 52.1528 75.4446 53.6773 72.9675 56.6307L71.5378 58.3456L70.3952 60.0604C69.4425 61.2989 68.8226 62.0607 68.5368 62.3465C68.5369 62.0606 68.7754 61.2504 69.2517 59.9169L69.6804 58.3456L69.9665 56.7733L70.1091 55.4872C70.1091 54.9157 70.0617 54.4868 69.9665 54.201C69.6807 53.5341 68.918 53.5341 67.6794 54.201C67.2983 56.2017 66.774 58.2023 66.1071 60.203L65.1071 62.7752L64.1071 65.4911L63.5349 66.9198L62.821 68.492C62.3447 69.6351 62.0589 70.54 61.9636 71.2069C61.5825 73.017 62.3918 73.7314 64.3923 73.3504C65.9762 70.5161 67.6696 67.9369 69.4724 65.6131L70.2517 64.6336L71.8239 62.6327L73.2526 60.4891C74.4912 58.8695 75.3968 57.6781 75.9685 56.9159C77.7785 54.7248 78.8262 54.1058 79.112 55.0585C78.9215 56.3922 78.5884 57.8213 78.112 59.3456L76.8259 63.204C75.6827 66.5384 74.9682 69.2062 74.6823 71.2069L74.6208 71.6942C74.3641 74.0608 74.8608 75.4228 76.111 75.7801C77.3496 76.0659 78.9214 75.3988 80.8269 73.7792C81.9728 72.8788 83.469 71.0986 85.3181 68.4403C85.4883 69.2881 85.8016 69.9982 86.2624 70.5692C84.7002 72.7325 83.3156 74.3474 82.1218 75.3026C80.2231 76.9165 78.0509 78.1673 75.8728 77.7723L75.6618 77.7294L75.611 77.7176L75.5622 77.703C74.1411 77.2969 73.2481 76.2387 72.8444 74.9471C72.4766 73.7696 72.4945 72.3766 72.7019 70.9247C73.0138 68.7408 73.7755 65.9353 74.9343 62.5555L75.5105 60.826C75.312 61.0861 75.1039 61.3603 74.8845 61.6473L73.445 63.8065L73.3962 63.868L71.8249 65.869L71.8132 65.8827L71.8025 65.8963C69.7879 68.3688 67.8984 71.1765 66.1384 74.326L65.6833 75.1405L64.7673 75.3153C63.6598 75.5262 62.1107 75.6142 60.9616 74.6004C59.7589 73.5392 59.7761 72.0087 59.9841 70.9208C60.1158 70.0023 60.4782 68.9132 60.9743 67.7225L60.9997 67.6639L61.6941 66.1385L62.2439 64.7626L63.2302 62.0838L63.237 62.0672L63.2429 62.0506L64.2234 59.5301C64.8566 57.6246 65.3533 55.7237 65.7146 53.827L65.8933 52.8915L66.7312 52.4403C67.4341 52.0618 68.2933 51.701 69.1804 51.701L69.365 51.7059C69.8024 51.7311 70.2829 51.8502 70.736 52.1385C71.1951 52.4307 71.5132 52.8254 71.7214 53.2362L71.8044 53.4129L71.8376 53.4891L71.863 53.5682C71.9716 53.8942 72.0341 54.2476 72.0691 54.6034C73.0942 53.4271 74.0373 52.4637 74.8943 51.742C75.8206 50.9619 76.9455 50.2015 78.154 50.0731ZM90.5984 60.5555C90.7049 60.8266 90.7687 61.1073 90.7946 61.3817C90.8641 62.1184 90.6837 62.8526 90.4685 63.4696C90.0267 64.736 89.1388 66.3222 87.9284 68.162L87.9216 68.1717C87.9113 68.1871 87.9006 68.2023 87.8903 68.2176C87.7645 65.8457 88.3871 63.6502 89.7634 61.6317C90.012 61.2701 90.2908 60.9117 90.5984 60.5555Z" fill="white"/>
</svg>
